<mxfile host="app.diagrams.net" modified="2023-04-17T09:41:38.902Z" agent="Mozilla/5.0 (Windows NT 10.0; Win64; x64; rv:109.0) Gecko/20100101 Firefox/112.0" etag="R2ctRQElmlpIxJefYE9W" version="21.1.8" type="github">
  <diagram name="Page-1" id="1hrMliXUyaiEVK_QisMv">
    <mxGraphModel dx="1434" dy="754" grid="1" gridSize="10" guides="1" tooltips="1" connect="1" arrows="1" fold="1" page="1" pageScale="1" pageWidth="1169" pageHeight="827" math="0" shadow="0">
      <root>
        <mxCell id="0" />
        <mxCell id="1" parent="0" />
        <mxCell id="t0LKm3EGDs16AiwfEuaH-1" value="" style="rounded=0;whiteSpace=wrap;html=1;fillColor=#f5f5f5;fontColor=#333333;strokeColor=#666666;" vertex="1" parent="1">
          <mxGeometry x="10" width="1150" height="90" as="geometry" />
        </mxCell>
        <mxCell id="t0LKm3EGDs16AiwfEuaH-2" value="Filtrer affichages" style="shape=partialRectangle;whiteSpace=wrap;html=1;bottom=0;top=0;fillColor=none;" vertex="1" parent="1">
          <mxGeometry x="250" y="20" width="130" height="50" as="geometry" />
        </mxCell>
        <mxCell id="t0LKm3EGDs16AiwfEuaH-3" value="Formulaires" style="shape=partialRectangle;whiteSpace=wrap;html=1;bottom=0;top=0;fillColor=none;" vertex="1" parent="1">
          <mxGeometry x="380" y="20" width="130" height="50" as="geometry" />
        </mxCell>
        <mxCell id="t0LKm3EGDs16AiwfEuaH-4" value="Modifications" style="shape=partialRectangle;whiteSpace=wrap;html=1;bottom=0;top=0;fillColor=none;" vertex="1" parent="1">
          <mxGeometry x="510" y="20" width="130" height="50" as="geometry" />
        </mxCell>
        <mxCell id="t0LKm3EGDs16AiwfEuaH-5" value="&lt;p style=&quot;line-height: 120%;&quot;&gt;Accueil&lt;/p&gt;" style="shape=partialRectangle;whiteSpace=wrap;html=1;bottom=0;top=0;fillColor=none;" vertex="1" parent="1">
          <mxGeometry x="115" y="20" width="135" height="50" as="geometry" />
        </mxCell>
        <mxCell id="t0LKm3EGDs16AiwfEuaH-6" value="" style="triangle;whiteSpace=wrap;html=1;rotation=90;" vertex="1" parent="1">
          <mxGeometry x="360" y="50" width="10" height="20" as="geometry" />
        </mxCell>
        <mxCell id="t0LKm3EGDs16AiwfEuaH-7" value="" style="triangle;whiteSpace=wrap;html=1;rotation=90;" vertex="1" parent="1">
          <mxGeometry x="490" y="50" width="10" height="20" as="geometry" />
        </mxCell>
        <mxCell id="t0LKm3EGDs16AiwfEuaH-8" value="FOOTER" style="rounded=0;whiteSpace=wrap;html=1;resizeWidth=0;" vertex="1" parent="1">
          <mxGeometry x="10" y="767" width="1150" height="60" as="geometry" />
        </mxCell>
        <mxCell id="t0LKm3EGDs16AiwfEuaH-9" value="" style="rounded=1;whiteSpace=wrap;html=1;" vertex="1" parent="1">
          <mxGeometry x="345" y="149" width="480" height="441" as="geometry" />
        </mxCell>
        <mxCell id="t0LKm3EGDs16AiwfEuaH-10" value="" style="rounded=0;whiteSpace=wrap;html=1;" vertex="1" parent="1">
          <mxGeometry x="480" y="230" width="225" height="30" as="geometry" />
        </mxCell>
        <mxCell id="t0LKm3EGDs16AiwfEuaH-11" value="&lt;b&gt;Formulaire casting&lt;br&gt;&lt;/b&gt;" style="text;html=1;strokeColor=none;fillColor=none;align=center;verticalAlign=middle;whiteSpace=wrap;rounded=0;" vertex="1" parent="1">
          <mxGeometry x="471.75" y="170" width="226.5" height="30" as="geometry" />
        </mxCell>
        <mxCell id="t0LKm3EGDs16AiwfEuaH-12" value="Film :" style="text;html=1;strokeColor=none;fillColor=none;align=center;verticalAlign=middle;whiteSpace=wrap;rounded=0;" vertex="1" parent="1">
          <mxGeometry x="428.5" y="230" width="60" height="30" as="geometry" />
        </mxCell>
        <mxCell id="t0LKm3EGDs16AiwfEuaH-13" value="Acteur :" style="text;html=1;strokeColor=none;fillColor=none;align=center;verticalAlign=middle;whiteSpace=wrap;rounded=0;" vertex="1" parent="1">
          <mxGeometry x="428.5" y="330" width="60" height="30" as="geometry" />
        </mxCell>
        <mxCell id="t0LKm3EGDs16AiwfEuaH-14" value="" style="rounded=0;whiteSpace=wrap;html=1;" vertex="1" parent="1">
          <mxGeometry x="488.5" y="330" width="204.75" height="30" as="geometry" />
        </mxCell>
        <mxCell id="t0LKm3EGDs16AiwfEuaH-17" value="Rôle :" style="text;html=1;strokeColor=none;fillColor=none;align=center;verticalAlign=middle;whiteSpace=wrap;rounded=0;" vertex="1" parent="1">
          <mxGeometry x="402" y="425" width="113" height="30" as="geometry" />
        </mxCell>
        <mxCell id="t0LKm3EGDs16AiwfEuaH-20" value="Valider" style="rounded=1;whiteSpace=wrap;html=1;" vertex="1" parent="1">
          <mxGeometry x="545" y="520" width="80" height="30" as="geometry" />
        </mxCell>
        <mxCell id="t0LKm3EGDs16AiwfEuaH-29" value="" style="triangle;whiteSpace=wrap;html=1;rotation=90;" vertex="1" parent="1">
          <mxGeometry x="685" y="235" width="10" height="20" as="geometry" />
        </mxCell>
        <mxCell id="t0LKm3EGDs16AiwfEuaH-31" value="" style="triangle;whiteSpace=wrap;html=1;rotation=90;" vertex="1" parent="1">
          <mxGeometry x="675" y="335" width="10" height="20" as="geometry" />
        </mxCell>
        <mxCell id="t0LKm3EGDs16AiwfEuaH-33" value="&lt;div align=&quot;center&quot;&gt;&lt;i&gt;Si le film n&#39;apparait pas dans la liste veuillez remplir le formulaire d&#39;ajout de film en &lt;font color=&quot;#a9c4eb&quot;&gt;cliquant ici.&lt;/font&gt;&lt;/i&gt;&lt;/div&gt;" style="text;whiteSpace=wrap;html=1;align=center;" vertex="1" parent="1">
          <mxGeometry x="425" y="270" width="320" height="50" as="geometry" />
        </mxCell>
        <mxCell id="t0LKm3EGDs16AiwfEuaH-35" value="&lt;div align=&quot;center&quot;&gt;&lt;i&gt;Si l&#39;acteur n&#39;apparait pas dans la liste veuillez remplir le formulaire d&#39;ajout d&#39;acteur en &lt;font color=&quot;#a9c4eb&quot;&gt;cliquant ici.&lt;/font&gt;&lt;/i&gt;&lt;/div&gt;" style="text;whiteSpace=wrap;html=1;align=center;" vertex="1" parent="1">
          <mxGeometry x="425" y="370" width="320" height="50" as="geometry" />
        </mxCell>
        <mxCell id="t0LKm3EGDs16AiwfEuaH-36" value="" style="rounded=0;whiteSpace=wrap;html=1;" vertex="1" parent="1">
          <mxGeometry x="488.5" y="425" width="204.75" height="30" as="geometry" />
        </mxCell>
        <mxCell id="t0LKm3EGDs16AiwfEuaH-37" value="" style="triangle;whiteSpace=wrap;html=1;rotation=90;" vertex="1" parent="1">
          <mxGeometry x="675" y="430" width="10" height="20" as="geometry" />
        </mxCell>
        <mxCell id="t0LKm3EGDs16AiwfEuaH-38" value="&lt;div align=&quot;center&quot;&gt;&lt;i&gt;Si le rôle n&#39;apparait pas dans la liste veuillez remplir le formulaire d&#39;ajout de rôle en &lt;font color=&quot;#a9c4eb&quot;&gt;cliquant ici.&lt;/font&gt;&lt;/i&gt;&lt;/div&gt;" style="text;whiteSpace=wrap;html=1;align=center;" vertex="1" parent="1">
          <mxGeometry x="425" y="460" width="320" height="50" as="geometry" />
        </mxCell>
      </root>
    </mxGraphModel>
  </diagram>
</mxfile>
